<?xml version="1.0" encoding="iso-8859-1"?>
<!-- Uploaded to: SVG Repo, www.svgrepo.com, Generator: SVG Repo Mixer Tools -->
<svg fill="#000000" height="800px" width="800px" version="1.1" id="Layer_1" xmlns="http://www.w3.org/2000/svg" xmlns:xlink="http://www.w3.org/1999/xlink" 
	 viewBox="0 0 512.004 512.004" xml:space="preserve">
<g>
	<g>
		<path d="M256.016,163.81c-50.784,0-91.944,41.164-91.944,91.94c0,50.78,41.16,91.94,91.944,91.94
			c50.78,0,91.944-41.164,91.944-91.94S306.796,163.81,256.016,163.81z M307.808,268.002H268v39.628c0,6.58-5.42,11.928-12,11.928
			c-6.58,0-12-5.348-12-11.928v-39.628h-39.944c-6.58,0-11.932-5.424-11.932-12s5.356-12,11.932-12H244v-40.124
			c0-6.584,5.42-11.932,12-11.932s12,5.348,12,11.932v40.124h39.808c6.584,0,11.932,5.424,11.932,12
			C319.744,262.578,314.392,268.002,307.808,268.002z"/>
	</g>
</g>
<g>
	<g>
		<path d="M142.636,280.002h-22.824c-11.028,0-19.812-8.992-19.812-20.02v-8.336c0-11.028,8.784-19.644,19.812-19.644h22.796
			c2.72-12,7.548-24,14.12-36H36.124C16.272,196.002,0,212.086,0,231.938v47.752c0,19.852,16.272,36.312,36.124,36.312H156.8
			C150.212,304.002,145.372,292.002,142.636,280.002z M55.752,279.566c-13.1,0-23.752-10.656-23.752-23.752
			c0-13.096,10.652-23.752,23.752-23.752c13.1,0,23.752,10.656,23.752,23.752C79.5,268.91,68.848,279.566,55.752,279.566z"/>
	</g>
</g>
<g>
	<g>
		<path d="M475.42,196.002H355.3c8.916,16,14.62,31.608,16.192,49.664c2.976-3.648,7.444-6.044,12.508-6.044
			c8.936,0,16.208,7.264,16.208,16.204c0,8.936-7.268,16.204-16.208,16.204c-5.068,0-9.544-2.232-12.516-5.884
			c-1.588,18.056-7.312,33.856-16.252,49.856h120.192c19.852,0,36.58-16.46,36.58-36.312v-47.752
			C512,212.086,495.272,196.002,475.42,196.002z M424.004,272.018c-8.936,0-16.208-7.268-16.208-16.204
			c0-8.936,7.268-16.212,16.208-16.212s16.212,7.272,16.212,16.212C440.216,264.75,432.94,272.018,424.004,272.018z
			 M464.056,272.018c-8.936,0-16.208-7.268-16.208-16.204c0-8.936,7.268-16.212,16.208-16.212s16.212,7.272,16.212,16.212
			C480.264,264.75,472.992,272.018,464.056,272.018z"/>
	</g>
</g>
<g>
	<g>
		<path d="M475.42,52.002H36.124C16.272,52.002,0,68.214,0,88.066v47.752c0,19.848,16.272,36.184,36.124,36.184h140.032
			c20.812-20,48.928-32.004,79.86-32.004c30.932,0,59.048,12.004,79.86,32.004h139.548c19.852,0,36.58-16.336,36.58-36.188V88.066
			C512,68.214,495.272,52.002,475.42,52.002z M55.752,135.69c-13.1,0-23.752-10.656-23.752-23.752s10.652-23.752,23.752-23.752
			c13.1,0,23.752,10.656,23.752,23.752S68.848,135.69,55.752,135.69z M356,116.002c0,11.044-8.952,20-20,20H120
			c-11.048,0-20-8.956-20-20v-8c0-11.044,8.952-20,20-20h216c11.048,0,20,8.956,20,20V116.002z M384,128.146
			c-8.936,0-16.208-7.268-16.208-16.208S375.06,95.73,384,95.73s16.208,7.272,16.208,16.208
			C400.208,120.874,392.936,128.146,384,128.146z M424.004,128.146c-8.936,0-16.208-7.268-16.208-16.208s7.268-16.208,16.208-16.208
			s16.212,7.272,16.212,16.208C440.216,120.874,432.94,128.146,424.004,128.146z M464.056,128.146
			c-8.936,0-16.208-7.268-16.208-16.208s7.268-16.208,16.208-16.208s16.212,7.272,16.212,16.208
			C480.268,120.874,472.992,128.146,464.056,128.146z"/>
	</g>
</g>
<g>
	<g>
		<path d="M475.42,340.002H335.876c-20.812,20-48.928,32-79.86,32s-59.048-12-79.86-32H36.124C16.272,340.002,0,355.838,0,375.69
			v47.748c0,19.856,16.272,36.564,36.124,36.564H475.42c19.852,0,36.58-16.708,36.58-36.564V375.69
			C512,355.838,495.272,340.002,475.42,340.002z M55.752,423.314C42.656,423.314,32,412.662,32,399.562
			c0-13.096,10.652-23.752,23.752-23.752c13.1,0,23.752,10.656,23.752,23.752C79.5,412.662,68.848,423.314,55.752,423.314z
			 M356,404.002c0,11.044-8.952,20-20,20H120c-11.048,0-20-8.956-20-20v-8c0-11.044,8.952-20,20-20h216c11.048,0,20,8.956,20,20
			V404.002z M384,415.77c-8.936,0-16.208-7.268-16.208-16.208c0-8.936,7.268-16.208,16.208-16.208s16.208,7.272,16.208,16.208
			C400.208,408.502,392.936,415.77,384,415.77z M424.004,415.77c-8.936,0-16.208-7.268-16.208-16.208
			c0-8.936,7.268-16.208,16.208-16.208s16.212,7.272,16.212,16.208C440.216,408.502,432.94,415.77,424.004,415.77z M464.056,415.77
			c-8.936,0-16.208-7.268-16.208-16.208c0-8.936,7.268-16.208,16.208-16.208s16.212,7.272,16.212,16.208
			C480.264,408.502,472.992,415.77,464.056,415.77z"/>
	</g>
</g>
</svg>